<svg width="240" height="240" viewBox="0 0 240 240" xmlns="http://www.w3.org/2000/svg" role="img" aria-label="Ald Eva logo">
  <defs>
    <linearGradient id="g1" x1="0" y1="0" x2="1" y2="1">
      <stop offset="0%" stop-color="#f59e0b"/>
      <stop offset="100%" stop-color="#f97316"/>
    </linearGradient>
    <linearGradient id="g2" x1="0" y1="0" x2="1" y2="1">
      <stop offset="0%" stop-color="#14b8a6"/>
      <stop offset="100%" stop-color="#0ea5e9"/>
    </linearGradient>
  </defs>
  <rect x="10" y="10" width="220" height="220" rx="44" fill="white"/>
  <circle cx="120" cy="95" r="40" fill="url(#g1)" opacity="0.95"/>
  <rect x="82" y="82" width="76" height="24" rx="12" fill="#111827" opacity="0.85"/>
  <rect x="82" y="112" width="76" height="24" rx="12" fill="#111827" opacity="0.85"/>
  <path d="M76 92c-18-14-34-14-42 2 14 3 27 3 42-2Z" fill="url(#g2)" opacity="0.9"/>
  <path d="M164 92c18-14 34-14 42 2-14 3-27 3-42-2Z" fill="url(#g2)" opacity="0.9"/>
  <path d="M70 168c22-18 78-18 100 0" fill="none" stroke="#0f172a" stroke-width="8" stroke-linecap="round"/>
  <path d="M88 186c22-18 54-18 72 0" fill="none" stroke="#0f172a" stroke-width="8" stroke-linecap="round" opacity="0.7"/>
  <text x="120" y="218" text-anchor="middle" font-family="ui-sans-serif, system-ui, -apple-system, Segoe UI" font-size="18" fill="#0f172a" font-weight="600">Ald Eva</text>
</svg>
