<svg xmlns="http://www.w3.org/2000/svg" viewBox="0 0 256 256" role="img" aria-label="Ald Eva generated logo">
  <defs>
    <linearGradient id="sun" x1="0" y1="0" x2="1" y2="1">
      <stop offset="0%" stop-color="#facc15"/>
      <stop offset="100%" stop-color="#f97316"/>
    </linearGradient>
    <linearGradient id="field" x1="0" y1="0" x2="1" y2="0">
      <stop offset="0%" stop-color="#0ea5e9"/>
      <stop offset="100%" stop-color="#14b8a6"/>
    </linearGradient>
  </defs>
  <rect x="12" y="12" width="232" height="232" rx="52" fill="#ffffff"/>
  <circle cx="128" cy="88" r="38" fill="url(#sun)" opacity="0.95"/>
  <path d="M48 170c20-16 48-24 80-24s60 8 80 24" fill="none" stroke="#0f172a" stroke-width="10" stroke-linecap="round"/>
  <path d="M64 194c16-12 38-18 64-18s48 6 64 18" fill="none" stroke="#0f172a" stroke-width="10" stroke-linecap="round" opacity="0.75"/>
  <path d="M82 78h92" stroke="#111827" stroke-width="14" stroke-linecap="round"/>
  <path d="M82 104h92" stroke="#111827" stroke-width="14" stroke-linecap="round"/>
  <path d="M56 96c-18-14-30-13-36 2 12 3 24 3 36-2Z" fill="url(#field)" opacity="0.9"/>
  <path d="M200 96c18-14 30-13 36 2-12 3-24 3-36-2Z" fill="url(#field)" opacity="0.9"/>
  <text x="128" y="228" text-anchor="middle" font-family="ui-sans-serif, system-ui, -apple-system, Segoe UI" font-size="18" fill="#0f172a" font-weight="700">ALD EVA</text>
</svg>
